<svg xmlns="http://www.w3.org/2000/svg" viewBox="0 0 256 256" width="256" height="256">
  <!-- Background Circle -->
  <circle cx="128" cy="128" r="120" fill="url(#gradient)" />
  
  <!-- Play Button Triangle -->
  <path d="M 100 80 L 100 176 L 180 128 Z" fill="white" opacity="0.95"/>
  
  <!-- Film Strip Decoration -->
  <g opacity="0.3">
    <!-- Top film strip -->
    <rect x="40" y="50" width="176" height="8" fill="white"/>
    <rect x="50" y="52" width="12" height="4" fill="#1a1a1a"/>
    <rect x="70" y="52" width="12" height="4" fill="#1a1a1a"/>
    <rect x="90" y="52" width="12" height="4" fill="#1a1a1a"/>
    <rect x="110" y="52" width="12" height="4" fill="#1a1a1a"/>
    <rect x="130" y="52" width="12" height="4" fill="#1a1a1a"/>
    <rect x="150" y="52" width="12" height="4" fill="#1a1a1a"/>
    <rect x="170" y="52" width="12" height="4" fill="#1a1a1a"/>
    <rect x="190" y="52" width="12" height="4" fill="#1a1a1a"/>
    
    <!-- Bottom film strip -->
    <rect x="40" y="198" width="176" height="8" fill="white"/>
    <rect x="50" y="200" width="12" height="4" fill="#1a1a1a"/>
    <rect x="70" y="200" width="12" height="4" fill="#1a1a1a"/>
    <rect x="90" y="200" width="12" height="4" fill="#1a1a1a"/>
    <rect x="110" y="200" width="12" height="4" fill="#1a1a1a"/>
    <rect x="130" y="200" width="12" height="4" fill="#1a1a1a"/>
    <rect x="150" y="200" width="12" height="4" fill="#1a1a1a"/>
    <rect x="170" y="200" width="12" height="4" fill="#1a1a1a"/>
    <rect x="190" y="200" width="12" height="4" fill="#1a1a1a"/>
  </g>
  
  <!-- Gradient Definition -->
  <defs>
    <linearGradient id="gradient" x1="0%" y1="0%" x2="100%" y2="100%">
      <stop offset="0%" style="stop-color:#FF6B6B;stop-opacity:1" />
      <stop offset="100%" style="stop-color:#C44569;stop-opacity:1" />
    </linearGradient>
  </defs>
</svg>